<?xml version="1.0" encoding="utf-8"?>
<svg xmlns="http://www.w3.org/2000/svg" width="87px" height="22px" viewBox="0 0 87 22" version="1.1" xmlns:bx="https://boxy-svg.com">
  <defs>
    <bx:grid x="0" y="0" width="124.961" height="62.505" divisions="3"/>
  </defs>
  <g id="surface1">
    <path style="stroke: none; fill-rule: nonzero; fill-opacity: 1; fill: rgb(47, 47, 51);" d="M 78.371094 7.054688 C 76.761719 7.503906 75.847656 8.257812 75.039062 9.835938 C 74.660156 10.546875 74.660156 12.273438 75.039062 13.289062 C 75.558594 14.710938 77.054688 15.972656 78.589844 16.289062 C 78.867188 16.332031 79.359375 16.625 79.691406 16.914062 C 81.285156 18.320312 83.316406 18.609375 84.722656 17.625 C 85.203125 17.277344 85.214844 16.929688 84.78125 16.523438 C 84.375 16.128906 84.273438 16.128906 83.808594 16.492188 C 83.316406 16.886719 82.316406 16.871094 81.664062 16.464844 L 81.15625 16.160156 L 81.984375 15.769531 C 83.910156 14.839844 84.855469 13.113281 84.609375 10.925781 C 84.433594 9.402344 83.417969 7.953125 82.140625 7.417969 C 80.519531 6.734375 79.792969 6.675781 78.371094 7.054688 Z M 80.691406 8.53125 C 81.5625 8.78125 82.417969 9.722656 82.722656 10.738281 C 83.070312 11.941406 82.839844 12.808594 81.941406 13.738281 C 79.910156 15.839844 76.574219 14.492188 76.558594 11.578125 C 76.558594 9.417969 78.546875 7.9375 80.691406 8.53125 Z M 80.691406 8.53125 "/>
    <path style="stroke: none; fill-rule: nonzero; fill-opacity: 1; fill: rgb(47, 47, 51);" d="M 19.574219 7.023438 C 19.574219 7.097656 19.558594 9.15625 19.558594 11.636719 L 19.574219 16.128906 L 20.445312 16.175781 L 21.316406 16.21875 L 21.316406 13.214844 C 21.316406 9.738281 21.171875 9.835938 22.953125 12.070312 C 23.605469 12.867188 24.492188 13.941406 24.941406 14.464844 C 25.390625 14.984375 25.882812 15.578125 26.027344 15.796875 C 26.246094 16.160156 26.359375 16.203125 27.101562 16.203125 L 27.914062 16.203125 L 27.914062 6.996094 L 27.011719 6.953125 L 26.101562 6.910156 L 26.101562 10.070312 L 26.085938 13.230469 L 25.765625 12.796875 C 25.59375 12.550781 24.636719 11.375 23.636719 10.1875 C 22.632812 8.980469 21.621094 7.765625 21.402344 7.460938 C 21.023438 6.96875 20.9375 6.921875 20.285156 6.921875 C 19.894531 6.921875 19.574219 6.96875 19.574219 7.023438 Z M 19.574219 7.023438 "/>
    <path style="stroke: none; fill-rule: nonzero; fill-opacity: 1; fill: rgb(47, 47, 51);" d="M 34.074219 7.574219 C 33.464844 8.953125 33.21875 9.503906 32.566406 10.882812 C 32.203125 11.648438 31.898438 12.316406 31.898438 12.359375 C 31.898438 12.390625 31.507812 13.214844 31.03125 14.203125 C 30.550781 15.175781 30.160156 16.03125 30.160156 16.085938 C 30.160156 16.144531 30.582031 16.203125 31.089844 16.203125 L 32.015625 16.203125 L 32.320312 15.449219 C 32.972656 13.882812 32.667969 14.027344 35.21875 14.027344 L 37.484375 14.027344 L 37.730469 14.578125 C 37.875 14.871094 38.089844 15.363281 38.207031 15.652344 L 38.425781 16.203125 L 39.453125 16.203125 C 40.003906 16.203125 40.441406 16.160156 40.410156 16.085938 C 39.875 15.027344 38.207031 11.449219 36.875 8.519531 C 36.148438 6.878906 36.265625 6.996094 35.265625 6.953125 L 34.363281 6.910156 Z M 36.164062 10.882812 C 36.726562 12.101562 36.917969 12.605469 36.773438 12.664062 C 36.671875 12.707031 35.902344 12.707031 35.0625 12.695312 L 33.539062 12.652344 L 34.351562 10.808594 C 34.800781 9.792969 35.207031 9.011719 35.265625 9.070312 C 35.320312 9.128906 35.726562 9.9375 36.164062 10.882812 Z M 36.164062 10.882812 "/>
    <path style="stroke: none; fill-rule: nonzero; fill-opacity: 1; fill: rgb(47, 47, 51);" d="M 42.730469 7.097656 C 42.703125 7.199219 42.703125 9.214844 42.730469 11.5625 C 42.761719 13.914062 42.789062 15.929688 42.773438 16.015625 C 42.773438 16.160156 43.527344 16.203125 46.050781 16.203125 L 49.316406 16.203125 L 49.269531 15.449219 L 49.226562 14.679688 L 46.878906 14.636719 L 44.515625 14.609375 L 44.515625 6.921875 L 43.660156 6.921875 C 43.09375 6.921875 42.773438 6.980469 42.730469 7.097656 Z M 42.730469 7.097656 "/>
    <path style="stroke: none; fill-rule: nonzero; fill-opacity: 1; fill: rgb(47, 47, 51);" d="M 49.589844 7.097656 C 49.589844 7.199219 49.9375 7.824219 50.359375 8.460938 C 50.765625 9.113281 51.214844 9.835938 51.359375 10.054688 C 51.488281 10.289062 51.925781 11.011719 52.332031 11.679688 L 53.070312 12.882812 L 53.070312 16.203125 L 54.953125 16.203125 L 54.953125 14.535156 C 54.953125 12.664062 54.824219 13.027344 56.492188 10.445312 C 56.925781 9.78125 57.273438 9.199219 57.273438 9.15625 C 57.273438 9.097656 57.535156 8.679688 57.855469 8.214844 C 58.636719 7.054688 58.625 6.921875 57.652344 6.921875 C 56.8125 6.921875 56.679688 7.011719 56.085938 8.039062 C 55.957031 8.257812 55.519531 8.996094 55.113281 9.679688 C 54.707031 10.359375 54.375 10.953125 54.375 11.011719 C 54.375 11.246094 53.996094 11.097656 53.78125 10.792969 C 53.300781 10.097656 52.054688 7.96875 52.054688 7.808594 C 52.054688 7.722656 51.996094 7.648438 51.9375 7.648438 C 51.867188 7.648438 51.734375 7.488281 51.648438 7.285156 C 51.488281 6.953125 51.402344 6.921875 50.53125 6.921875 C 49.878906 6.921875 49.589844 6.980469 49.589844 7.097656 Z M 49.589844 7.097656 "/>
    <path style="stroke: none; fill-rule: nonzero; fill-opacity: 1; fill: rgb(47, 47, 51);" d="M 59.796875 7.054688 C 59.769531 7.082031 59.738281 7.429688 59.738281 7.824219 L 59.738281 8.519531 L 62.785156 8.519531 L 62.785156 16.203125 L 64.523438 16.203125 L 64.523438 8.519531 L 67.730469 8.519531 L 67.6875 7.75 L 67.640625 6.996094 L 63.757812 6.996094 C 61.609375 6.996094 59.828125 7.023438 59.796875 7.054688 Z M 59.796875 7.054688 "/>
    <path style="stroke: none; fill-rule: nonzero; fill-opacity: 1; fill: rgb(47, 47, 51);" d="M 70.136719 7.011719 C 70.078125 7.066406 70.035156 9.15625 70.035156 11.664062 L 70.035156 16.203125 L 71.921875 16.203125 L 71.890625 11.59375 L 71.847656 6.996094 L 71.050781 6.953125 C 70.601562 6.921875 70.195312 6.953125 70.136719 7.011719 Z M 70.136719 7.011719 "/>
    <path style="stroke: none; fill-rule: nonzero; fill-opacity: 1; fill: rgb(47, 47, 51);" d="M 8.167 13.588 C 7.35 13.765 5.915 14.365 5.231 14.832 C 4.112 15.583 2.323 17.673 2.514 17.986 C 2.555 18.041 2.897 17.891 3.291 17.644 C 5.654 16.142 8.388 15.392 10.821 15.568 C 12.54 15.693 14.372 16.278 16.135 17.261 C 17.46 18.001 17.946 18.305 17.535 17.641 C 17.448 17.513 17.598 17.817 17.527 17.639 C 17.426 17.385 15.436 15.159 14.7 14.722 C 13.345 13.901 12.117 13.559 10.353 13.507 C 9.496 13.478 8.509 13.519 8.167 13.588 Z M 8.167 13.588"/>
  </g>
  <g transform="matrix(0.133333, 0, 0, -0.133333, -123.626633, 150.39772)" fill="#000000" stroke="none">
    <path style="fill-rule: nonzero; fill: rgb(0, 175, 175); stroke: rgb(0, 175, 175);" d="M 1001.23 1097.67 L 960 1024.44 L 965.673 1027.89 L 971.344 1030.48 L 977.016 1032.54 L 982.688 1034.09 L 988.359 1035.22 L 1001.25 1061.41 L 1014.14 1035.22 L 1019.81 1034.09 L 1025.48 1032.54 L 1031.16 1030.48 L 1036.84 1027.89 L 1042.5 1024.54 L 1001.23 1097.67 Z"/>
  </g>
</svg>